#!OML:ASF E:/inclinewalkrobotboard/Project1/Captureday1/Session1/subject1.ASF
:FULLY-SPECIFIED
:DEGREES
126
root 0 0 0 -0.9023509833875778 -6.232202578179116 -7.362936579276026
lowerback 10.446864657758479 2.0734068719413603 6.514975272033914
upperback 0.7518320411690985 3.6039457599057227 1.969928831151966
thorax -4.843293997538255 1.6409489311270984 -2.120683148861579
lowerneck -18.047094201736567 -3.05213626937239 -1.8385400150068953
upperneck 18.607476293799014 -3.829333867460146 0.3199059090433489
head 8.764822672424089 -1.876917207100809 -0.09537189852880135
rclavicle -7.81256290804984E-15 8.89515268525467E-16
rhumerus -29.60954260582846 -14.634819484820408 -81.16217449704348
rradius 26.53230964126203
rwrist 2.1359410759373523
rhand -18.826493089152255 26.50781853967834
rfingers 7.12502000000001
rthumb 7.470752834425282 -3.356738300457998
lclavicle -8.191433689231951E-15 4.302187656014138E-16
lhumerus -34.01106733958834 1.8168509191624145 84.34350335729154
lradius 25.15802521954699
lwrist 5.671503460291131
lhand -27.567072048187818 24.83920413103123
lfingers 7.125020000000029
lthumb -0.9714347843315974 54.8445587771
rfemur 6.061400063110917 8.785646863559123 36.07308221704428
rtibia 24.065348845665014
rfoot -21.301560184842476 -5.2370249204574195
rtoes -1.1126009008205242
lfemur -26.690189419853947 -4.24150208434803 -12.685952388662006
ltibia 21.374981558154175
lfoot -5.0558621623884825 3.7631130479474333
ltoes 0.3550426851435766
127
root 0 0 0 -1.1422688109912669 -6.249231533873772 -6.993535674193888
lowerback 10.36156346859883 2.1420614866594727 6.195021342808328
upperback 0.690834951535807 3.6548029908916915 1.8809164660956987
thorax -4.866236049684304 1.6749062136790505 -2.0343988414726195
lowerneck -18.100621568098983 -3.1032019380369045 -1.887038448038989
upperneck 18.886936144453234 -3.920019802067405 0.416871580648833
head 8.88075350595151 -1.9073595196644801 -0.06826509396137526
rclavicle -8.925869607934967E-15 -1.6718929152512618E-15
rhumerus -30.355584523881852 -16.07115880291054 -80.63154902782728
rradius 25.22165896270772
rwrist 3.07692348445748
rhand -18.68012688457428 26.368423910465154
rfingers 7.125020000000012
rthumb 7.612011900300036 -3.48374579040771
lclavicle -9.771919369449325E-15 -2.219632996357127E-15
lhumerus -36.03197084404473 4.1670990131416765 83.18164922983604
lradius 23.562692833663675
lwrist 4.245392813457965
lhand -27.035276180334762 24.32869218697154
lfingers 7.12502000000003
lthumb -0.45662984163640274 54.32259085213115
rfemur 9.160944100614106 8.263101722521144 35.63511123925459
rtibia 27.620123964605202
rfoot -18.37348859234843 -3.5072463920312305
rtoes -5.348628541175039
lfemur -26.49972566827429 -4.08620079037348 -13.243601447093639
ltibia 21.782260045257658
lfoot -4.812480298852652 2.957250132154878
ltoes 0.45720811212557066
128
root 0 0 0 -1.6031261929501668 -6.214669836167725 -6.339038537758604
lowerback 10.419809757773843 2.1537206121846966 5.635622887073258
upperback 0.5933115592653612 3.6135224291916845 1.7889546130431624
thorax -5.016089787750417 1.6682538406550285 -1.8058329550684231
lowerneck -18.19139965530514 -3.2236818738302033 -1.9555352607277414
upperneck 19.577800155283363 -4.106987378783541 0.5093118849413012
head 9.155352738918197 -1.9792762097237881 -0.0538720481197319
rclavicle -8.00340865403998E-15 -1.83401575935619E-15
rhumerus -31.032159557549953 -17.209304881897825 -80.27014351879258
rradius 24.142801078424185
rwrist 4.008710976336398
rhand -18.53568171268937 26.27297038272006
rfingers 7.125020000000014
rthumb 7.750847994741963 -3.5702836825707536
lclavicle -9.127651987331925E-15 -2.320669670776815E-15
lhumerus -37.94941964095223 6.517379344827476 81.51608866290442
lradius 22.246565079415756
lwrist 2.839021228331211
lhand -26.358390090620283 24.003679373494293
lfingers 7.125020000000026
lthumb 0.19616549630166435 53.982595687029985
rfemur 6.953897411371099 5.683340256923923 30.63356379065651
rtibia 36.326811838808496
rfoot -11.258239505529176 -1.4571988362478918
rtoes -4.682795178835002
lfemur -26.224058535138695 -3.433788011118276 -13.951494106994788
ltibia 22.387426684998573
lfoot -4.717875716665889 2.0728753087831997
ltoes 0.4314296520174885
129
root 0 0 0 -2.4281770746476576 -6.132804431462926 -4.456382157630681
lowerback 10.657004613350878 2.147775997727817 4.0367545150560815
upperback 0.39752051694154744 3.4135049329835443 1.399182944391331
thorax -5.411708858890427 1.60443357186933 -1.2921859001724587
lowerneck -17.6619239418191 -3.3654557563201175 -1.9388545069197876
upperneck 19.09949993306315 -4.281887288533523 0.6325278119509594
head 8.912705510177169 -2.069670414073887 -0.025397891156588526
rclavicle -5.613625884768058E-15 -1.812399116902021E-15
rhumerus -31.775646511819172 -18.64330566495193 -79.76219619999493
rradius 22.848492611338564
rwrist 5.025885503574728
rhand -18.33893565962706 26.179408453137654
rfingers 7.125020000000018
rthumb 7.940251318542396 -3.653601537902844
lclavicle -6.3331763343479796E-15 -2.363093400076799E-15
lhumerus -38.97542225392059 8.086557999098046 80.22385132437725
lradius 21.434555475921027
lwrist 2.174907278116924
lhand -26.087572376877667 24.082257462342607
lfingers 7.125020000000022
lthumb 0.45460536260536255 54.05361926211555
rfemur -3.155115696439733 3.150698358799614 24.148937923118382
rtibia 49.864079601516096
rfoot 3.896417375543942 -0.3094653016143618
rtoes 1.7648675521513404
lfemur -25.408011779218906 -2.6031052084122575 -14.933960676027848
ltibia 23.123179633718433
lfoot -4.924513972417188 1.129573382133422
ltoes 0.4329137411224586
